<?xml version="1.0" encoding="UTF-8"?><svg xmlns="http://www.w3.org/2000/svg" xmlns:xlink="http://www.w3.org/1999/xlink" width="375" zoomAndPan="magnify" viewBox="0 0 375 374.999991" height="374.999991" preserveAspectRatio="xMidYMid meet" version="1.0"><defs><clipPath id="clip-0"><path d="M 102.140625 37.59375 L 188.609375 37.59375 L 188.609375 138 L 102.140625 138 Z M 102.140625 37.59375 " clip-rule="nonzero"/></clipPath><clipPath id="clip-1"><path d="M 102.140625 87 L 273.140625 87 L 273.140625 237.523438 L 102.140625 237.523438 Z M 102.140625 87 " clip-rule="nonzero"/></clipPath><clipPath id="clip-2"><path d="M 102.140625 187.308594 L 273.140625 187.308594 L 273.140625 337.394531 L 102.140625 337.394531 Z M 102.140625 187.308594 " clip-rule="nonzero"/></clipPath></defs><g clip-path="url(#clip-0)"><path fill="rgb(91.369629%, 33.729553%, 43.919373%)" d="M 188.515625 112.546875 L 188.515625 62.613281 L 145.207031 37.59375 L 101.988281 62.613281 L 101.988281 112.546875 L 145.207031 137.558594 L 188.515625 112.546875 " fill-opacity="1" fill-rule="nonzero"/></g><g clip-path="url(#clip-1)"><path fill="rgb(70.199585%, 25.878906%, 43.919373%)" d="M 172.527344 221.707031 L 172.53125 221.714844 L 175.445312 220.03125 L 188.515625 212.511719 L 188.515625 212.476562 L 246.699219 178.847656 L 246.695312 178.839844 L 274.953125 162.480469 L 274.953125 112.546875 L 231.734375 87.53125 L 202.648438 104.367188 L 202.648438 104.363281 L 131.304688 145.574219 L 101.988281 162.480469 L 101.988281 212.511719 L 145.207031 237.429688 L 172.527344 221.707031 " fill-opacity="1" fill-rule="nonzero"/></g><g clip-path="url(#clip-2)"><path fill="rgb(44.309998%, 21.569824%, 43.919373%)" d="M 174.628906 320.402344 L 174.667969 320.472656 L 248.839844 277.695312 L 248.777344 277.597656 L 274.953125 262.445312 L 274.953125 212.511719 L 231.734375 187.496094 L 188.515625 212.511719 L 188.515625 212.527344 L 145.332031 237.507812 L 145.207031 237.429688 L 101.988281 262.445312 L 101.988281 312.382812 L 145.207031 337.394531 L 174.628906 320.402344 " fill-opacity="1" fill-rule="nonzero"/></g></svg>